<svg xmlns="http://www.w3.org/2000/svg" viewBox="0 0 800 400" role="img" aria-label="NBA illustration">
  <defs>
    <radialGradient id="glow" cx="0.2" cy="0.3" r="0.8">
      <stop offset="0" stop-color="#18b26b" stop-opacity="0.3"/>
      <stop offset="1" stop-color="#18b26b" stop-opacity="0"/>
    </radialGradient>
  </defs>
  <rect x="0" y="0" width="800" height="400" rx="28" fill="url(#glow)"/>
  <g transform="translate(40,20)">
    <circle cx="200" cy="210" r="100" fill="#f59e0b" stroke="#b45309" stroke-width="10"/>
    <path d="M140 210 C170 170 230 170 260 210" fill="none" stroke="#8a3412" stroke-width="8"/>
    <path d="M140 210 C170 250 230 250 260 210" fill="none" stroke="#8a3412" stroke-width="8"/>
    <path d="M200 110 C200 160 200 260 200 310" fill="none" stroke="#8a3412" stroke-width="8"/>
    <path d="M100 210 C150 210 250 210 300 210" fill="none" stroke="#8a3412" stroke-width="8"/>
  </g>
  <g transform="translate(380,70)">
    <rect x="0" y="0" width="280" height="200" rx="16" fill="#0a1520" stroke="#16c3b5" stroke-width="6"/>
    <rect x="20" y="20" width="240" height="140" rx="12" fill="#0f2540" stroke="#1f3a5f" stroke-width="4"/>
    <circle cx="140" cy="90" r="30" fill="none" stroke="#16c3b5" stroke-width="6"/>
    <rect x="90" y="150" width="100" height="10" rx="5" fill="#16c3b5"/>
    <path d="M90 160 C120 190 160 190 190 160" fill="none" stroke="#16c3b5" stroke-width="6"/>
  </g>
</svg>
